<svg xmlns="http://www.w3.org/2000/svg" viewBox="0 0 729 670"><path fill="#bdb592" d="M390 54a162 162 0 0 1 62 11 165 165 0 0 1 70 41 163 163 0 0 1 43 122l-3 1-46 20-12 3-10-5-8-3c-10-4-10-4-13-8l-2-6q-5-13-17-20-15-6-31-2-9 3-17 10l-3 2-8 10-1 1q-15 24-10 51l7 16v2l-45 19-15 6-33 14-2 1q-10 3-18 8-8 2-15-1l-3-2-4-1-19-8-3-1-4-1q-4-1-6-5l-2-7-1-5a210 210 0 0 1-5-106A195 195 0 0 1 390 54"/><path fill="#faf3cd" d="M390 54a162 162 0 0 1 62 11 165 165 0 0 1 70 41c19 17 32 45 37 70v5h-2l-1-2c-14-35-32-69-68-85l-12-4-3-1a127 127 0 0 0-86 19l-27 17-3 2-3 2-5 1c2-11 13-20 22-26a128 128 0 0 1 81-23l27 3-8-3-2-1-6-2-3-1q-14-4-29-3h-3q-18-1-34 5l-3 1q-20 8-37 20l-2 2a194 194 0 0 0-70 111v2a190 190 0 0 0-4 48q0 38 17 71v6l-4 2-2 1-3 1-5 2-2 1-4 2q-7 1-12-2l-3-2-4-1-19-8-3-1-4-1q-4-1-6-5l-2-7-1-5a210 210 0 0 1-5-106A195 195 0 0 1 390 54"/><path fill="#934d17" d="m427 302 3 1 3 1 2 1 31 10 3 1 2 1 2 10q1 6 5 8 4 3 8 3 0 3-4 5l-4 1-2 1-38 17-29 13-89 39-2 1-9 4-34 16-3 1-3 1-4 1v-40l-9-3-13-5-3-1-4-2-3-1q-3-1-4-5a1406 1406 0 0 1 104-43l44-18 2-1 38-16 2-1z"/><path fill="#c0b894" d="M392 62v3l-4 1-5 1-3 1-15 5-4 1q-19 9-37 23l-4 1q0-5 3-9-17 9-31 23l-2 2c-17 16-33 42-38 66l1-2 2-3 2-4 2-2h1l2 22v11l1-3q8-31 27-56l2 1-11 28-1 2-8 29q-5 21-5 43v2q-1 24 4 48l1 2q5 23 15 45l-6 3-3 2q-5 2-12 0l-3-1-3-2-4-1-19-8-3-1-4-1q-4-1-6-5l-2-7-2-5c-6-24-6-24-6-32l1-14v-3l1-16v-2q0-5 2-9l1 7v-3c4-29 9-54 23-80l1 9v6l1-4a147 147 0 0 1 80-95l3-2 23-9q20-9 42-8"/><path fill="#cb7525" d="m320 432 1 4 9 34 3 10 3 12 9 39 4 13 5 20 11 37 2 6 1 4 1 7-41 20-2 2-3 1q-6 2-12-2l-3-1q-8-3-12-11l-2-6-1-3-3-10-1-2-2-10-2-8q5 1 6 6l1 2 2 3 1 3 10 19h1q-2-18-8-34l-1-8 2-1 10-5 3-2 2-1 5-3v-9l-1-21v-3l-3-15-6-3-4-2-2-1-12-7-5-3q-8-4-10-13l-1-12q5 1 5 5l1 2 2 3 1 2 3 6h2l-3-24-4-22 6-3 3-2h6q4 7 5 16h2l-1-4-1-4-1-3v-2l-1-2v-5l7-2 6 18 2 6 4-1q0-8-4-17l-2-10z"/><path fill="#924d18" d="m542 436 3 1v18c0 10 0 10-5 13l-14 7-9 4 2-1 16-5c0 10 0 10-2 14l-7 3-5 3-33 16-3 2-29 13-45 20-2 1-2 1-2 1h-9l-1-43-37-15v-3l4-2 2-1c8-2 18 4 26 7l2 1 3 1q8 3 16-2l2-1 4-2 9-4 59-28 16-7 27-13 3-1q6-2 11 2"/><path fill="#898364" d="m491 355 5 27c1 9 1 9 6 15l7 2v2l-9 8-5 3q-23 19-51 28l-2 1c-28 9-59 10-85-3q-12-5-22-14l10-6 3-1 4-1 43-19 3-1 5-3 14-6 65-29 2-1z"/><path fill="#924d17" d="m644 220 6 2 4 1 3 2 7 4 1 6v3l1 3v4l1 22-122 51-3 1-2 1-5 1v-6l11-7 3-3v-2l-3-1v-3l-2-26 18-9 25-11 3-2 2-1 3-2q3-1 4-5l4-2 3-2 3-1 3-1 18-8 3-3q-19 4-36 13l-4 2-7 3-3 2-3 1h-5l2-2q-8 0-15 4l-4 2-2 1-10 4-10 5-4 1v2l-15-3 8-5h2l4-2 10-4 3-1 69-30h2l2-1 4-2c8-4 15 0 23 4"/><path fill="#914c17" d="M85 479v2q-2 10 1 21 6 6 13 8l10 5 2 1 17 10q5 3 11-1l15-8 3-1 5-2v2q3 13 15 22 15 10 33 10 16 1 31 10l1 2-19 10-1 29c-9-1-9-1-13-3l-2-1-3-2a3403 3403 0 0 0-153-73l1-28 23-10 2-1z"/><path fill="#eb9941" d="m419 309 4 1 5 2 8 2 3 1 3 1h3l7 2v2l-65 28-3 1-56 24-4 1-3 2-3 1-5 2-5 1v-3q-11 2-20 6l-6 2v6l-14 7-1 40h-2v-40l-9-3-13-5-3-1-4-2-3-1q-3-1-4-5a1406 1406 0 0 1 107-44l60-26c9-3 14-4 23-2"/><path fill="#c77224" d="m642 295 7 23 13 39 11 37 14 44 3 9 3 9 1 4 1 3 1 3 4 17-3 2-2 1-14 7-3 1-2 1h-6l-4-14-1-3-7-20-1-3v-8l4-2 3-2 1-6 2-5q7-15 4-32-3-9-10-15-4-3-10-3c-13-3-13-3-16-8l-2-10-2-6-8-30v-2l-4-22 10-3q4 3 5 7l1 2 12 35q-3-19-10-38l-2-10z"/><path fill="#616462" d="M255 485q11 6 14 18c1 16 1 16-2 21l-3 3h-2l-1-18-3 2c-19 12-39 11-60 8v15q-13-2-22-11c-3-6-2-17-1-24l7-9 2-2q10-7 21-9l2-1c15-3 35 0 48 7"/><path fill="#8e8867" d="m219 255 4 11q5 19 13 37l-1-7v-3l-2-6v-29h1v3c2 17 2 17 10 32l2 1v-3l1-23v-2l1-11q5 5 6 11l2 4v2l4 8 4-25h1q3 12 3 23l3 18 1 2q5 23 15 45l-6 3-3 2q-7 3-15-1l-4-2-3-1-4-2-20-8-2-1 2-1-1-4q-11-30-12-61z"/><path fill="#eb9840" d="m198 332 6 2 4 2 17 6 34 13-9 5-3 1-3 2-17 7-2 2-4 2q-7 3-14 1l-20-9-2-1-31-13-5-2-2-1-7-4 32-15c10-4 16-2 26 2"/><path fill="#934d18" d="m139 345 53 23 3 1 8 3 2 1 9 3v39l-17-6-2-1-16-6-2-1-23-9-4-2-11-4v-10l12 3 4 2 26 9c-20-9-20-9-42-16v-8l2 1 15 6 4 1q7 4 16 3l-37-16z"/><path fill="#eb9842" d="M85 479v2q-2 10 1 21 6 6 13 8l10 5 2 1 17 10q5 3 11-1l15-8 3-1 5-2v2q3 13 15 22 15 10 33 10 16 1 31 10l1 2-19 10-1 29h-5v-30l-6-2-6-3-4-1-2-1-33-16-79-37-4-1-16-7-2-2-5-2q-4-1-7-5l20-9 2-1 3-1 2-1z"/><path fill="#c9c5b3" d="m162 454 3 1 16 7 3 1 6 4v6l-4 2-3 2-6 2-1-3q-19 8-37 18c-5 3-5 3-9 2l-16-7-10-6-2-1-8-4 1-4 6-3 3-2 27-12 3-2 6-3 2-1 3-1q9-2 17 4"/><path fill="#ee9d46" d="m542 436 3 1-1 4-9 4-7 4-18 8-21 9-68 31-2 1-15 6 1 3v11l-5 2 1 8 4 1v17l-9 1-1-43-37-15v-3l4-2 2-1c8-2 18 4 26 7l2 1 3 1q8 3 16-2l2-1 4-2 9-4 59-28 16-7 27-13 3-1q6-2 11 2"/><path fill="#934c17" d="M282 516c17 5 17 5 22 10v32l-43 22-3 2-7 1v-2c1-14 1-14-3-27q-6-4-12-5l9-4c20-5 20-5 34-18l2-6v-3z"/><path fill="#934c15" d="m315 570 1 3q4 21 13 41l5-1q1-9-2-19l-2-17h3l1 2v2l1 3 7 22v2l4 18v2l2 1-11 5-3 2-3 1-3 2-11 3-3-1-2-1-3-2-2-1q-9-2-11-11l-2-4-1-3c-8-24-8-24-8-31q5 1 6 6l1 2 2 3 1 3 10 19h1q-2-18-8-34l-1-8 11-6 2-1 2-1z"/><path fill="#e99841" d="m639 217 1 1 10 4 13 6v2l-6 3-4 2-5 1v-3c-13 3-13 3-25 9l-1 3q-4 5-10 7h-2l-8 3-57 23-1-5 18-9 25-11 3-2 2-1 3-2q3-1 4-5l4-2 3-2 3-1 3-1 18-8 3-3q-19 4-36 13l-4 2-7 3-3 2-3 1h-5l2-2q-8 0-15 4l-16 7-10 5-4 1v2l-15-3 8-5h2l4-2 10-4 3-1 62-27 2-1 7-2 2-1 4-2q9-3 18 1"/><path fill="#5a2e0f" d="m158 316 3 1 8 3-7 5h-2l-27 12-4 1-1 42-15-5-2-1-3-1-9-4v-40l33-16 4-2q12-1 22 5"/><path fill="#bcb492" d="m502 397 3 1 2 1h2v2l-9 8-5 3q-23 19-51 28l-2 1c-28 9-59 10-85-3q-12-5-22-14 5-5 12-5 5 1 9 4c22 15 46 14 71 9l3-1q37-8 67-32 2-2 5-2"/><path fill="#b9651c" d="M579 378q32 0 62 10l-2 3h-2l-1 2-4 6-7 17-27-9-12-4-3-1-20-8q1-16 16-16"/><path fill="#beb798" d="m219 112 2 1-2 2q-11 14-19 30l-1 2q-7 14-11 28l-1 2q-6 19-9 40l-1 4-2 22c-12-15-12-36-9-54l2-12 1-3c6-23 22-45 42-58z"/><path fill="#515553" d="m498 315 14 3 11 2 9 48 5 1-2 3q-4 8-6 19l-13-3-3-1q-3-2-4-5l-2-12-7-37-1-5v-2z"/><path fill="#914b14" d="m308 440 2 4v3l1 3 2 5v3l2 5h3v3q2 16 9 31 6 13 8 28c2 12 2 12 6 23q4 8 2 18v3l-1 7h-2l-1-2-2-8-1-3-1-3-1-3-3-3v10c-7-11-9-29-12-42l-14-55-3-14-1-6-1-4v-2c5-2 5-2 8-1"/><path fill="#633112" d="m347 474 15 5 2 1 3 3-9 4 9 5h2l27 12v42l-13-4-8-3c-11-4-11-4-13-9q-3-8-3-17l1-2 4 1q12 5 25 7l-9-6-19-8q-6-5-8-13l-4-10z"/><path fill="#6a6c6a" d="m93 475 1 3 5 2 25 13 2 1q4 3 8 1l9-4q16-9 34-16l1 5-5 4q-7 6-10 15-1 5-7 7l-2 1-10 5c-9 5-9 5-12 5l-9-4-2-1-28-15z"/><path fill="#bfb899" d="m169 133 2 1-1 2q-11 16-17 35l-2 4-2 7-1 3-1 4v3l-3 34 2 28q-10-10-15-25l-1-3q-8-31 8-60 11-20 31-33"/><path fill="#934d17" d="m234 377 3 1-8 3q4 5 10 6l2 1 7 3 17 7v39l-12-4-4-1-4-2-7-3-3-2-8-3v-41z"/><path fill="#be6b1d" d="M431 316h4l-9 6-2 1-6 2-3 2c-17 7-17 7-23 8l-12 5-2 1-11 7-7 4-3 1-20 9-2 1-19 3 2-2 5-6-23 10-14 3-5 2-11 4-3 1h-6q14-8 30-14l22-8 2-1 25-12q18-10 37-16l2-1 12-1q-5 6-11 8l-2 1 9-3 6-1 16-6 6-3 2-2q7-3 14-3"/><path fill="#fbf4cf" d="m354 153 2 1-2 3q-26 36-35 79h-1v-18l-2 7-1 3-3 25v18l-1 3-1 8h-2c-11-21-8-44-1-66 8-24 23-51 47-63"/><path fill="#bbb495" d="M517 57a109 109 0 0 1 57 34q24 25 23 61v3q1 9-2 17h-2l-1-4a191 191 0 0 0-32-74q-17-20-41-35l-2-1z"/><path fill="#bcb697" d="M569 65c23 8 41 28 51 50q12 28 3 58h-2v-2a232 232 0 0 0-25-71q-10-18-26-33z"/><path fill="#5f2f0f" d="m500 486 1 4-24 13-3 2-3 1h-6v-2l-16 8c-15 9-15 9-22 9v-2l-12 6q-7 4-15 3v-8l2-1 9-5 3-1 3-2 3-2 7-3 6-2q8 0 14-5l23-11h3l3-1 3-1h2l-9 9 8-3 2-2c14-6 14-6 18-4"/><path fill="#ef9c44" d="m164 335 2 1-1 2 1 3 7 3 19 8 20 7q7 1 12 6l5 1 2-2h6q-5 6-12 8l-3 1q-7 5-15 2l-20-9-2-1-31-13-5-2-2-1-7-4 7-3 2-1 6-3 2-1z"/><path fill="#8e4917" d="m116 396 7 3-1 14-2 10 7-22 9 3 4 1-4 23-1 4c-2 9-2 9-5 12l-9 4-2 1-5 2-3 1-3 1-5 2z"/><path fill="#934d17" d="m631 302 3 7 1 2 2 6 9 26-5-2 1 4 7 24 1 3 1 9-2-1h-3l-2-1-5-1-3-3-1-3-1-4-11-40v-2l-4-22c9-4 9-4 12-2"/><path fill="#2d302e" d="m262 508 1 20-15 6q-15 5-30 3h-3q-9 1-18-2l1-16h13c21 4 34-11 51-11"/><path fill="#8d4815" d="m297 445 2 5 1 2 2 8-5-2 2 14v2l2 7 8 34-16-7-3-2q-12-7-15-19v-9q5 1 5 5l1 2 2 3 1 2 3 6h2l-3-24-4-22 6-3 3-2z"/><path fill="#bd6a1e" d="m633 226-3 4-4 2-3 1-8 4-13 5-3 1-1 4q-24 16-51 25l-4 3-1-2q-4-6-12-8l2-1v-2l9-4 2-2 20-9q8-4 15-3l-2 3 22-9c23-12 23-12 35-12"/><path fill="#6d3511" d="M655 393q6 3 8 8 4 13-3 25l-4 5h-2l1 9-4 1-2-5h-4q-3 1-7-2-6-10-4-22 3-11 13-18z"/><path fill="#eb9a44" d="m158 316 3 1 8 3-7 5h-2l-27 12-4 1-1 3-28-10 3-4 2-1 3-2 3-1 3-2 9-4 2-1 9-4c8-4 16 0 24 4"/><path fill="#fbf4ce" d="M492 143q20 14 27 39v10l-8-11a99 99 0 0 0-68-40c11-11 37-5 49 2"/><path fill="#515553" d="m487 255 6 3-2 2q-14 12-15 28v13c-11-2-11-2-16-5q-5-10-3-22 4-12 16-19 6-3 14 0"/><path fill="#6a3411" d="m562 391 1 3 4 1 14 5 2 1 42 15 1-3v2l1 16q-22-5-42-17l-16-7-7-4z"/><path fill="#bab9ad" d="m452 243 3 1 8 3v3l-4 3-8 9-2 3-1 2-13-4-3-1-4-1-3-1-8-3q1-8 8-15c8-7 17-2 27 1"/><path fill="#fbf3cf" d="m384 194-8 18-3 6q-12 22-16 45l-1 2-2 14q-9-16-4-36c3-14 17-49 34-49"/><path fill="#fbf4d0" d="M484 121h-8c-28-5-58 5-83 16l-4 1q3-5 8-8l2-2 5-3-4-2q42-23 84-2"/><path fill="#525655" d="m176 475 2 4-2 2-3 3-2 2-2 2-1 1-3 5q-2 8-9 12l-12 6-10 5-3-1h2v-11c0-7 0-7 2-10l7-4 2-1z"/><path fill="#ec9a43" d="M282 516q11 3 21 9l1 4-34 17-2 1-12 6q-5 4-10 1l-10-5 9-4c20-5 20-5 34-18l2-6v-3z"/><path fill="#a0a09a" d="m450 223 4 5-4-1q-14-4-28 3-15 12-19 31-1 17 7 33-6-2-10-8-8-16-4-33c5-13 13-27 27-33q14-6 27 3"/><path fill="#faf3cd" d="m386 158-2 4-1 1q-23 25-38 56l-5 6-3-1c-1-18 9-34 20-48 7-6 19-18 29-18"/><path fill="#faf4ce" d="m479 166 3 2h-10l2 1q17 11 23 30l-1 5-1-2q-12-24-38-34-20-2-40 5c-5 2-5 2-8 1 22-13 47-25 70-8"/><path fill="#934e18" d="m242 560 3 19v9l-10 5-3 1-2 2-3 1-5 1-1-14v-4l1-10q4-4 10-6l5-2z"/><path fill="#592d0d" d="m234 377 3 1h-2l-6 4-1 16h2l8 4 3 1 2 1h-8l-3-1-4-2v7l2 1c26 8 26 8 35 14v14l-12-4-4-1-4-2-7-3-3-2-8-3v-41z"/><path fill="#525655" d="m416 255 1 2 5 1 13 4 4 1 3 1 4 1 3 3-1 2-2 15-19-5-3-1-9-4v-11z"/><path fill="#f6f6f6" d="M588 326q4 4 4 10l1 2 4 18 1 2 1 9h-12q-9 0-16-6l6-13z"/><path fill="#8b4716" d="M297 579h2l6 27h2l1-2 1 3 7 27 2 7-9-3-3-1q-7-2-10-9l-2-7-1-3-3-10-1-2-2-10-2-8q5 1 6 6l1 2 2 3 1 3 10 19h1q-2-18-8-34z"/><path fill="#884716" d="M636 457q9 2 16 7l4 2 2 1 5 1 5 16 1 3v2l1 6-5-1-2-1-7-4-2-6-1-3-1-3-2-5-1-4h-2l1 3 1 5v2l1 9-7-2q-4-6-5-12v-3q-2-6-2-13"/><path fill="#a5a59f" d="m510 319 13 1 5 31v3q2 5-2 10l-6 6h-2l-1-3-3-23-1-3-3-15z"/><path fill="#974f19" d="m100 331 16 5 3 1 8 4v22l-19-7-2-1-6-3v-10l14 5v-2l-14-5z"/><path fill="#515453" d="m508 270 6 2-1 2-2 2-1 2q-5 8-6 18v8l-6-2-4-1-7-4q-2-11 4-20 6-11 17-7"/><path fill="#894617" d="m68 544 10 3-1 5-2 11 6-7 4 1 1-5 11 4-4 19-12-3-3-2-3-1-3-1-8-4 1-5v-3z"/><path fill="#c16d1d" d="m190 342 3 2 25 11q6 5 14 6v-2l4 1h3l4 3q-6 3-12 2l-2 2-5-1-2-2q-4-3-9-4l-23-8-11-5-14-6 1-3c8-3 17 1 24 4"/><path fill="#f9f2cd" d="M241 212h1l1 42v4q-1 10 2 20v16q-11-12-11-29v-15q-1-16 5-31v-2z"/><path fill="#606462" d="M529 279h4q5 7 4 15-2 7-7 13-5 2-10 0-4-3-5-7-1-9 4-17 4-4 10-4"/><path fill="#95501a" d="m218 442 2 1 5 2v2l-12 6-4 1-3 2-3 1q-5 2-11 0l-2-1-2-1-1-1-2-1-5-3q6-5 13-8l2-1q12-5 23 1"/><path fill="#bcb38f" d="M389 405h10l4 1 9 3 1 2-5 2 11 3-1 3c-11 4-27 0-37-4l-10-5 3-4q7-2 15-1"/><path fill="#b8661e" d="M160 514h2v2q3 13 13 20l16 8-2 1v2q-10 1-18-6l-6-3-3-2q-13-7-26-9l8-4 2-2 3-1 6-3 2-1z"/><path fill="#f8f1cd" d="m493 385 2 1a88 88 0 0 1-52 31h-15q3-4 8-5l4-2 4-1 30-14 3-2 13-6z"/><path fill="#bcbbb1" d="m487 255 6 3-2 2-7 8-2 2-5 7-18-5q3-11 12-16 8-4 16-1"/><path fill="#f29d45" d="M580 385q29-1 56 7l-6 10-20-5-2-1-28-9z"/><path fill="#979270" d="M533 194q4 1 4 5l1 2 1 3 1 2 2 6h1l2-7q6 9 5 19v10l-15 6v-6q1-20-2-40"/><path fill="#5a5d5c" d="m175 499 1 3h2l1 3a27 27 0 0 0 22 13l-3 1v15q-13-2-22-11l-1-7z"/><path fill="#a6591c" d="m194 289 2 12-3 1-4 2-3 1q-6 1-10 5-8 2-14-2l-6-3 13-7z"/><path fill="#faf4d1" d="M521 136c13 10 22 30 25 46v19h-2l-7-18q-5-20-14-40z"/><path fill="#221e17" d="m647 234-1 2-1 6 2 1-2 4-4 1q-6 1-10 7c-4 5-4 5-8 5h-3l-1-5 2-3v-6q1-4 4-6l6-3 3-1z"/><path fill="#958f6f" d="M367 263h2v2l7 19 1 2q4 9 12 15l-8 4-3 1h-2l-2 1-3 1-1-5-1-3-1-4-1-2-1-17v-2z"/><path fill="#faf3cf" d="m343 120 1 3-2 4-2 2-2 2-15 20-12 17-2 3-5 3q5-20 18-35l2-2q8-10 19-17"/><path fill="#747571" d="m448 242 4 1 3 1 8 3q1 3-2 5l-2 2-2 2-2 1-3-1-28-10q1-4 4-6c6-4 13 0 20 2"/><path fill="#211e18" d="M304 377h4l-1 2-2 6 3 3-6 3q-7 1-12 7l-7 1-2-6v-3q0-3 2-5l8-5 3-1z"/><path fill="#562e0d" d="m633 226-3 4-18 8-1 1-21 9c-14 7-14 7-21 7q1-4 5-6l19-9c28-14 28-14 40-14"/><path fill="#f5f5f5" d="m173 418 10 3 3 1 2 1 3 1 7 3v2l-2 1-19 8-3 2-5 2z"/><path fill="#dc8836" d="M396 504h8l1 9v5l-5 2 1 8 4 1v17l-9 1z"/><path fill="#944d19" d="m517 425 10 4 3 1 6 2q-6 7-16 8-9-2-18-8l-5-2v-2l5-3 3-2q6-1 12 2"/><path fill="#934d19" d="M228 414q12 3 22 9l4 1 11 5v8l-12-4-4-1-7-4-14-6z"/><path fill="#979993" d="M212 489q7 1 11 7v5l-6 4q-10 0-18-7l-2-5q6-8 15-4"/><path fill="#753a0f" d="M379 328q-4 7-12 10l-2 1-25 10-18 6h2v-4l4-2 2-1 18-9c22-12 22-12 31-11"/><path fill="#9ea09b" d="M180 495h2l2 3q8 10 21 13 4 1 4 4v2l-4 2q-15 0-25-10l-2-10z"/><path fill="#6b6f6d" d="M260 489q10 8 9 21c1 10 1 10-2 14l-3 3h-2v-14c0-6 0-6-3-11l-3-2-4-4v-7q4-2 8 0"/><path fill="#bdb590" d="m466 380 2 1q-13 17-34 21h-13q0-3 5-5l26-11 12-5z"/><path fill="#c0beb3" d="M567 370v2l-4 3-9 12-5-1h-3l-6-2q1-7 7-13 9-6 20-1"/><path fill="#8f896d" d="m559 331-4 9-1 3-5 9-3 4h-6l-1-6-1-3v-9l7-3 2-1 2-1 2-1c5-2 5-2 8-1"/><path fill="#944d19" d="m100 358 27 12v9l-18-6-2-1-7-3z"/><path fill="#85410e" d="M330 577h3l1 2v2l1 3 7 22v2l4 18v2l2 1-7 3-4-19h-2l-1-4v-5l-1-2-3-15z"/><path fill="#f9f2cd" d="m497 108 7 8-1 2-3-2q-24-12-51-15l1-2q26-6 47 9"/><path fill="#f9f4cf" d="M305 179v8l-1 2-1 3-1 2-3 11-6 18-1 3-2 9h-1v-14q0-23 15-41z"/><path fill="#4b270d" d="M633 266q1 5-2 6l-9 3-11 5q-15 8-31 11v-2l11-6 3-1q10-6 22-10l10-4q3-2 7-2"/><path fill="#974f1a" d="m581 194 11 3 4 2 21 8v2q-8 4-17 1l-8-3-2-1c-7-2-7-2-9-7z"/><path fill="#faf3ce" d="M465 194q18 6 27 22 4 9 3 19l-2 1-1-2q-8-23-27-39z"/><path fill="#bbbaaf" d="m508 270 6 2-1 2q-5 5-8 12l-15-3q1-8 7-13 6-2 11 0"/><path fill="#515453" d="m539 382 1 2 14 2 1 2-1 2-1 11v3c-9-1-9-1-13-4q-2-4-2-10v-3z"/><path fill="#7d3f0e" d="M324 352v3h-2l-1 3-5 2-3 2-3 1-3 1-11 5-6 1-11 4-9 3-3 1h-6q16-9 33-14l23-10 3-1z"/><path fill="#683312" d="m239 454 9 3 2 10h3v-8l6 2v14l-13-3-3-1-4-2z"/><path fill="#bdb693" d="M250 295q6 5 8 12l1 2 14 29q-11-5-17-18-7-12-6-25"/><path fill="#555857" d="m397 251 1 2 6 2v2q-3 19 6 37-6-2-10-8-8-17-3-35"/><path fill="#cf7726" d="M309 604c7 8 18 24 18 35l-6 3-3-1-7-23-1-2z"/><path fill="#908c6c" d="M323 289q4 4 5 10c5 12 5 12 14 22l-5 2-3 1h-6l-2-6-1-4q-2-8-2-17z"/><path fill="#693311" d="m636 457 13 5v6h-2l1 3 1 5v2l1 9-7-2q-4-6-5-12v-3q-2-6-2-13"/><path fill="#9a9d98" d="M232 511h8q3 3 2 8-13 3-28 2v-8q8-3 18-2"/><path fill="#622e0e" d="M52 503q20 6 37 20v1q-12-1-23-7l-4-2-10-6z"/><path fill="#656867" d="M448 222q4 2 6 6l-4-1q-14-3-29 3l-3-7q15-9 30-1"/><path fill="#85420e" d="m435 316-9 6-2 1-6 2-3 2c-17 7-17 7-23 8q-7 2-13 6l-7 2 3-4 2-1 3-1 2-1 22-10c20-11 20-11 31-10"/><path fill="#632f0d" d="M293 548v6q-8 6-17 9l-3 1-2 1-2 1-6 1q3-5 9-9l1-1 9-6 2-2 2-1z"/><path fill="#302112" d="m538 455-1 6-7 4-2 1c-20 9-20 9-26 9v-2l6-4 1-1 17-9c7-4 7-4 12-4"/><path fill="#f9f3d0" d="M299 295q4 5 6 12l1 2 2 6 1 3q3 8 2 15l-5-1c-7-10-8-26-7-37"/><path fill="#eda250" d="m655 393 4 4h-2q-9 2-13 10l-4 10h-6q0-11 9-20 5-5 12-4"/><path fill="#8a8b85" d="m487 255 6 3-10 9-16-7q8-9 20-5"/><path fill="#e5e1d0" d="M94 475h2v2h2l17 7 4 3q9 5 18 3l4-1 7-1q-4 5-9 6l-3 2c-6 2-11-2-16-4l-16-9-2-1-8-4z"/><path fill="#2d2215" d="M299 404h2l1 2 1-1h6v4l-12 4-8 3q-4 3-9 2v-4l2-1 11-7z"/><path fill="#5c2c0d" d="M443 520c-27 16-27 16-32 16l-2-1 1-5c8-5 24-13 33-10"/><path fill="#bcb38f" d="M370 422q12-1 22 4l4 1 9 2v2q-13 4-27-2l-8-6z"/><path fill="#4c270c" d="m139 361 21 8 3 1 15 7v1q-11 1-23-5l-4-1-12-6z"/><path fill="#5b2c0d" d="M442 494c-28 17-28 17-37 17v-5l11-5 3-1c18-8 18-8 23-6"/><path fill="#938e6e" d="m517 219 2 1 2 8 1 2 2 15-5 3-3 1-3 1-2-1 1-2q4-13 5-28"/><path fill="#63300d" d="m134 550 18 5 3 1c13 5 13 5 17 9v3q-10-1-19-6l-3-2q-9-3-16-9z"/><path fill="#602d0b" d="m474 333 5 4-14 6c-18 8-18 8-24 8v-3l21-9 3-1 9-3z"/><path fill="#7b3c14" d="M279 602h2c11 18 11 18 11 27l-9-3-2-6v-4z"/><path fill="#f9f4d0" d="M336 256q4 2 4 6l1 31h-2q-4-8-4-17v-15z"/><path fill="#faf4d2" d="M255 216h1l1 15v23h-3q-2-8-2-17v-3z"/><path fill="#602e0c" d="M424 357q0 3-4 5c-19 9-19 9-28 9q1-4 5-6c17-8 17-8 27-8"/><path fill="#8b4817" d="m642 295 3 7v2q3 5 1 11l-4 2-1 2-2-7-1-2-3-13z"/><path fill="#7e3f14" d="M628 301v24h-1v-7h-2l1 17q-3-4-3-10l-1-3-1-3v-3l-2-12 6-2z"/><path fill="#a1a29d" d="M260 489q5 3 5 8c1 6 1 6-2 9l-1 1-1-2-6-6q-4-2-3-7v-3q4-2 8 0"/><path fill="#a05618" d="M671 419h1v17l-2-2 3 11 1 14q-10-8-9-21 1-5 4-9z"/><path fill="#a5a392" d="M189 467h1v6l-4 2-3 2-6 2-1-3-13 5c-2-6-2-6-1-10h5l2 1h5q7 2 12-2h3z"/><path fill="#6a310d" d="M352 386q0 5-4 5l-2 1h-2l-3 1-24 10q-5 5-12 2 2-3 6-4l3-1 3-1 3-2 24-9z"/><path fill="#9f541c" d="m347 474 15 5 2 1 3 3-5 3-3 1h-6q-4-2-5-8z"/><path fill="#364448" d="M377 460h17q10 1 18 4v2q-12 3-24-1l-3-1z"/><path fill="#7c7d79" d="m564 369 3 1v2l-8 7-14-5q8-8 19-5"/><path fill="#5e2d0c" d="m139 374 15 3 2 1 30 13c-12 4-36-10-47-15z"/><path fill="#b6af91" d="m557 330 2 1-4 9-1 3-8 13h-5q1-6 5-11l6-9z"/><path fill="#834110" d="M679 465h3q5 10 7 22l2 1-6 2q-7-12-6-25"/><path fill="#7a3f16" d="M616 350q6 6 9 14l2 2 3 7h-6l-5-4-2-6-1-2z"/><path fill="#e59543" d="M162 514v2q1 7 5 13l-1 2-16-8q1-5 3-5l2-2 3-1z"/><path fill="#f8f3d0" d="M398 206q1 3-2 5l-3 3-8 11-1 2-7 10h-1q3-15 14-25z"/><path fill="#622e0d" d="M188 575q14 2 25 9v4q-8 0-15-5l-2-1q-5-2-8-7"/><path fill="#918b6b" d="m355 292 9 11 6 6-10 4q-5-10-5-21"/><path fill="#b3b2a9" d="M531 279v3l-2 1q-5 2-7 6l-3 12h-2q-3-5-2-11 4-11 16-11"/><path fill="#66320f" d="M666 255h1v12l-1-4-3 1q-12 5-24 7 3-4 9-6l2-1 9-5 7-1z"/><path fill="#b6b5ab" d="m528 369 7 2-4 8q-7 1-13-2 2-8 10-8"/><path fill="#874619" d="m320 432 4 15-6 2-1 2-2-7-1-2v-8z"/><path fill="#904811" d="M351 597h2l1 2 2 9 1 4 1 3 1 3 3 4-7 3q-3-13-4-28"/><path fill="#7d3d0e" d="m204 562 2 2c7 3 7 3 8 5l-10-3-3-2-5-2v4q-8-1-15-6v-2q12-2 23 4"/><path fill="#b56216" d="M279 379v2l-8 4-2 1q-7 4-14 3v-3q11-8 24-7"/><path fill="#aba694" d="M122 469c9-1 15 5 22 9l-2 2q-8 0-14-5l-2-1-5-2z"/><path fill="#3a4a50" d="m471 443 11 3 3 1 5 3q-6 3-12 2l-9-5z"/><path fill="#be6c1e" d="m292 366-2 1-1 3-14 5-5 2c-6 2-6 2-9 1 25-14 25-14 31-12"/><path fill="#8d4811" d="m435 316-7 5-2 1-3 1-2 1-6 2-4-4c16-7 16-7 24-6"/><path fill="#2d1d0c" d="m234 377 3 1h-2l-6 4-1 16h2l8 4 3 1 2 1h-8l-3-1-4-2v21h-1v-41z"/><path fill="#7f807b" d="M502 269q7 0 12 3l-3 4q-8 0-16-3 2-4 7-4"/><path fill="#6e6f6a" d="M528 357h1l1 9 7 3-2 3-3-1-8-1-5 4-1-4 3-2q6-4 7-11"/><path fill="#a7601b" d="M82 479h3v22l-1-3-6-2-8-4 1-2q7 0 13 3v-13z"/><path fill="#512809" d="M338 612h2l3 7 1 2 2 7 2 1-7 3z"/><path fill="#8f8a6a" d="M310 312h2l1 2 2 3 1 3 4 5 1 4-6 2q-4-9-5-19"/><path fill="#989171" d="m343 301 10 13v2l-6 2q-5-8-4-17"/><path fill="#262623" d="M465 282q3 0 5 2v7h-7q-2-2-2-5-1-5 4-4"/><path fill="#bc6a1e" d="M204 552q11 1 20 7l-1 3-11-4-3-1z"/><path fill="#a45616" d="m391 325-10 8-3 2-8 1 2-1 7-7-2-1z"/><path fill="#1f1b0f" d="M640 317q4 4 4 9l1 3 1 2v3l2 13c-5-5-8-16-8-23z"/><path fill="#281f14" d="M633 266q1 5-2 6-4 3-8 2l-1-2q1-4 4-5z"/><path fill="#7f3d0d" d="M330 577h3q3 8 2 15l-2 4q-3-9-3-19"/><path fill="#632f0d" d="M122 429v14l-1 5-5 1c1-6 2-16 6-20"/><path fill="#ce7927" d="m392 330 2 1-7 4-3 1-5 2-2 1-2 1-3 4h-2l1-5 11-5z"/><path fill="#75390e" d="M190 384q5 0 10 3 6 4 14 5l-1 3-2-1-8-2q-7-1-13-7z"/><path fill="#703f1c" d="m285 588 5 3 1 3-1 2 1 8 1 2 2 7 1 2-1 6-7-23v-2z"/><path fill="#e3dfd1" d="M94 475h2v2h2l14 7-1 2-17-8z"/><path fill="#352513" d="M123 399h1v6h2l-6 21h-1z"/><path fill="#eb9539" d="M392 328h4l1 2h-2l-13 5-11 4v-2l2-1 3-2 3-1 6-4z"/><path fill="#777a78" d="M189 467h1v6l-4 2-3 2-6 2v-4l4-2 3-2 5-1z"/><path fill="#352210" d="m294 443 2 1h5l3 17h-2l-1-2-1-3-1-3-1-3-1-3z"/><path fill="#863f0f" d="M151 318q-4 5-10 6l-2 1c-5 2-5 2-8 1 13-8 13-8 20-8"/><path fill="#e7e2c7" d="m277 104-5 8-3 2-2 2-2 2-5 5-2-1 12-13 1-2z"/><path fill="#3a2712" d="M545 281h1l1 21 2 1-1 5q-4-4-3-9z"/><path fill="#b7b08e" d="M244 271h3v11l-1 12h-1z"/><path fill="#af5e1a" d="m279 527 7 2-4 5h-6q0-4 3-7"/><path fill="#6f360d" d="M100 340q8 0 14 5v2q-7 0-13-4z"/><path fill="#a75a14" d="M569 248q-3 4-8 5l-3 1-5 1q1-4 5-6z"/><path fill="#3d2911" d="m533 470 2 1v3l-2 1-11 4h-6l8-5 3-1 2-1 2-1z"/><path fill="#cd7f38" d="m655 393 4 4h-15q5-6 11-4"/><path fill="#d67c2b" d="m668 390 4 1 2 16-3-4-1-3-1-4z"/><path fill="#ede4bd" d="M383 61h22l-1 2-6 1-3 1h-3v-3h-9z"/><path fill="#632f0d" d="M181 558q9 1 14 6l1 2q-8-1-15-6z"/><path fill="#e3e0bf" d="M554 165h2l2 5v3l1 8h-2q-3-8-3-16"/><path fill="#343836" d="m246 506 6 1v4l-7 1-1-4z"/><path fill="#d7893f" d="m324 447 2 13-4-10v8h-2l-2-9z"/><path fill="#b9671d" d="M578 244q-3 5-9 5l-6-1q6-5 15-4"/><path fill="#332010" d="M647 468h2l2 7h-2l1 4 1 9-2-1q-2-9-2-19"/><path fill="#622e0b" d="m228 398 10 4 3 1 2 1h-8l-3-1-4-2zm124-12q-1 4-4 5l-6 1 1-4q4-2 9-2"/><path fill="#9e5315" d="M396 333v1l-3 1q-8 2-14 6l-7 2 3-4 7-3 2-1c8-4 8-4 12-2"/><path fill="#b0aa85" d="M220 247h1v5h-1zm-3 2 1 3h2l1 6h-1l-1 12h-1z"/><path fill="#999579" d="M341 452c7 1 7 1 9 3l-8 3z"/><path fill="#6e3309" d="M404 328v3q-6 3-12 2 5-5 12-5"/><path fill="#b6af88" d="m235 289 2 16-4-8-1-3-1-2z"/><path fill="#e4dec0" d="M215 269h1l-1 15-2-4v-5z"/><path fill="#824315" d="m191 557 3 1 1 6-10-5z"/><path fill="#d5d3c1" d="m188 467 1 3-4 2-3 1-5 1q1-4 4-5l3-1h2z"/><path fill="#e9a04c" d="m117 520 4 2 2 1 3 4-9-3z"/><path fill="#de9546" d="m237 364-9 6h-2v-3q5-4 11-3"/><path fill="#3b2a10" d="M644 331q4 7 4 16-4-4-5-10z"/><path fill="#dd8935" d="M392 328h4l1 2h-2l-2 1h-3l-5 2v-2l-2-1q4-2 9-2"/><path fill="#a09b79" d="M264 255h1q3 9 2 17h-1l-1-6h-2z"/><path fill="#b7661d" d="m599 244-4 5h-7q5-5 11-5"/><path fill="#b9671f" d="m331 554 3 1 1 5-3-1v8h-2z"/><path fill="#dcd9ca" d="M94 475h2v2h2l5 3v2l-9-4z"/><path fill="#9d9b8c" d="M169 473c7 0 7 0 10 2l-11 4 1-3h3v-2z"/><path fill="#bf6c21" d="m392 330 2 1-9 5-3-1 6-4z"/><path fill="#8d4810" d="M379 328q-1 4-4 5l-2 1v-3l-2-2z"/><path fill="#6e391a" d="M279 602h2l4 6-1 2-3-2-1 4z"/><path fill="#864611" d="M315 356v2l2 2h-11q4-4 9-4"/><path fill="#74441b" d="m641 330 4 8v3l1 2-3-1v-2l-2-1z"/><path fill="#efe9ca" d="M398 206v3q-4 5-11 7z"/><path fill="#874718" d="m357 618 5 4-7 3v-5h2z"/><path fill="#743609" d="M330 577h3l1 6-3 1-1-4z"/><path fill="#606361" d="M133 496h2l-1 3-1 8v8h-1v-16z"/><path fill="#6a320d" d="m442 494-9 5v-2h-5v-1l6-2z"/><path fill="#e7e2c1" d="M431 414h3v2h9v1h-15z"/><path fill="#ab5e1b" d="m379 331 2 1q-4 4-11 4z"/><path fill="#69340a" d="M572 250h2v2h5q-4 4-10 3z"/><path fill="#c8c4b2" d="m517 57 11 4-3 2-4-2-2-2-2-1z"/><path fill="#572f0f" d="M343 623h2v2l1 3 2 1-5 1z"/><path fill="#33200d" d="m659 461 2 1 1 7-6-2 3-1z"/><path fill="#2a2920" d="m406 217-1 5-2 1-2 2-1 1-2-1z"/><path fill="#f1ebc8" d="M253 172h3q-1 6-5 10z"/><path fill="#974f16" d="M341 607h1l2 14q-4-4-3-9z"/><path fill="#6a6c69" d="m179 493 3 1-2 1-2 7h-2q0-5 3-9"/><path fill="#362414" d="m282 385 3 2-1 1-1 5v5h-1l-1-5v-3z"/><path fill="#d7cea8" d="M392 62h10q-4 4-10 3z"/><path fill="#878881" d="M189 467h1v6l-5 1-1-3 5-1z"/><path fill="#ddd9ba" d="M556 172h2l1 9h-2z"/><path fill="#251a0d" d="M305 612q3 4 2 9h-3z"/><path fill="#994c11" d="M351 597h2l1 6h-2l-1 4z"/><path fill="#e39241" d="m200 547 7 1-2 1v2l3 1-5 1z"/><path fill="#75756f" d="M530 368h6l1 2-2 2-6-2z"/><path fill="#b06017" d="m124 328 2 1c-5 3-5 3-8 3l-2-1c5-3 5-3 8-3"/><path fill="#e9e2bc" d="M244 281h1v13l-3-2z"/><path fill="#bdbcb4" d="m527 279 5 1-4 3-3 1z"/><path fill="#545655" d="m448 222 6 5q-4 2-9-1l3-1z"/><path fill="#6a300c" d="m443 520-7 4-2-1v-2c6-2 6-2 9-1"/><path fill="#3e3f3e" d="m41 484-2 4h-2v7h-1l1-10z"/><path fill="#d77a26" d="M654 394v2q-4 2-10 1c6-3 6-3 10-3"/><path fill="#2f2010" d="m533 470 2 1v3h-6v-2z"/><path fill="#cd7d32" d="m297 457 7 5-1 2-1-1q-2-2-5-2z"/><path fill="#91430a" d="m380 337 2 1-4 3-2 1-4 1q1-3 4-5z"/><path fill="#a16027" d="m163 301 2 1-5 2v2l-4-1z"/><path fill="#ad5a15" d="m576 244 2 1-5 3-3-1q3-4 6-3"/></svg>
